#!OML:ASF G:\JayActor3\Patient Classification 1\Patient 1\Session 5\male.ASF
:FULLY-SPECIFIED
:DEGREES
666
root 5.11504 15.7662 -4.36498 352.862 93.5413 336.999
lowerback 35.8426 -3.70125 2.9107
upperback 9.41361 -2.65071 -2.29043
thorax -7.69269 -0.726869 -3.02794
lowerneck 2.54687 -1.27474 1.45226
upperneck -25.3457 -0.290784 2.60745
head -8.25683 -0.158181 0.595446
rclavicle 3.06128e-014 2.34566e-014
rhumerus -29.3754 3.43777 -88.8175
rradius 42.8396
rwrist -1.54031
rhand -21.6949 -10.3287
rfingers 7.12502
rthumb 4.70334 -40.2565
lclavicle 3.06128e-014 2.34566e-014
lhumerus -31.5407 1.83917 82.6343
lradius 37.4079
lwrist 24.3772
lhand -19.6177 14.0118
lfingers 7.12502
lthumb 6.70888 43.8856
rfemur -68.4371 -0.301582 21.2821
rtibia 76.3757
rfoot 7.1479 -10.9989
rtoes -13.9347
lfemur -44.0841 11.2585 -18.2279
ltibia 84.9388
lfoot 28.3163 -9.74989
ltoes -16.5312
667
root 5.24062 15.7639 -4.35725 352.596 93.7019 336.772
lowerback 35.9502 -3.7298 2.8998
upperback 9.42717 -2.67916 -2.30269
thorax -7.71822 -0.73614 -3.02273
lowerneck 2.53312 -1.29091 1.43162
upperneck -25.3011 -0.30058 2.68603
head -8.23871 -0.168416 0.625843
rclavicle 2.10712e-014 -9.54166e-015
rhumerus -29.3313 3.51175 -88.7963
rradius 42.9529
rwrist -1.5526
rhand -21.6667 -10.2762
rfingers 7.12502
rthumb 4.73058 -40.2034
lclavicle 2.10712e-014 -9.54166e-015
lhumerus -31.447 1.76977 82.6736
lradius 37.408
lwrist 24.3452
lhand -19.6913 13.9803
lfingers 7.12502
lthumb 6.63782 43.8563
rfemur -68.2365 -0.29846 21.2769
rtibia 76.9165
rfoot 7.06596 -11.2138
rtoes -14.29
lfemur -45.0956 11.1556 -18.2658
ltibia 85.6793
lfoot 26.3488 -9.73302
ltoes -17.022
668
root 5.36435 15.7605 -4.35007 352.41 93.8886 336.612
lowerback 36.0394 -3.76218 2.90056
upperback 9.44108 -2.70926 -2.31642
thorax -7.7374 -0.746232 -3.02492
lowerneck 2.50593 -1.31197 1.42591
upperneck -25.2372 -0.317032 2.7647
head -8.21168 -0.183188 0.654058
rclavicle -2.06736e-014 -2.52457e-014
rhumerus -29.2969 3.54049 -88.7721
rradius 43.0568
rwrist -1.55004
rhand -21.6221 -10.2122
rfingers 7.12502
rthumb 4.77365 -40.1384
lclavicle -2.06736e-014 -2.52457e-014
lhumerus -31.3587 1.69014 82.7063
lradius 37.4215
lwrist 24.3521
lhand -19.7729 13.951
lfingers 7.12502
lthumb 6.5591 43.8294
rfemur -68.0564 -0.320582 21.2586
rtibia 77.4528
rfoot 7.00729 -11.4172
rtoes -14.5999
lfemur -46.1946 11.0747 -18.3533
ltibia 86.375
lfoot 24.2579 -9.69604
ltoes -17.7235
669
root 5.48651 15.7561 -4.34348 352.333 94.0978 336.556
lowerback 36.1202 -3.79964 2.90655
upperback 9.45564 -2.74332 -2.32427
thorax -7.75294 -0.758207 -3.02222
lowerneck 2.47318 -1.33352 1.41722
upperneck -25.1697 -0.335295 2.84125
head -8.18234 -0.198222 0.682106
rclavicle -7.15625e-015 -5.60573e-014
rhumerus -29.2678 3.54422 -88.7405
rradius 43.1518
rwrist -1.5416
rhand -21.5845 -10.1257
rfingers 7.12502
rthumb 4.81 -40.0511
lclavicle -7.15625e-015 -5.60573e-014
lhumerus -31.2834 1.61891 82.7389
lradius 37.4532
lwrist 24.3944
lhand -19.8491 13.93
lfingers 7.12502
lthumb 6.48551 43.8107
rfemur -67.8846 -0.364129 21.2289
rtibia 77.9821
rfoot 6.95205 -11.6183
rtoes -14.7847
lfemur -47.3708 11.0152 -18.4888
ltibia 87.0156
lfoot 22.1256 -9.60487
ltoes -18.5304
670
root 5.60743 15.751 -4.33776 352.338 94.3179 336.586
lowerback 36.2033 -3.83867 2.91774
upperback 9.47045 -2.77651 -2.32666
thorax -7.7687 -0.769718 -3.01672
lowerneck 2.43664 -1.35867 1.41279
upperneck -25.102 -0.360826 2.9071
head -8.15225 -0.216055 0.706334
rclavicle 3.97569e-016 -1.21259e-014
rhumerus -29.2487 3.52515 -88.6989
rradius 43.2449
rwrist -1.53915
rhand -21.5543 -10.0236
rfingers 7.12502
rthumb 4.83912 -39.9484
lclavicle 3.97569e-016 -1.21259e-014
lhumerus -31.2226 1.54799 82.7726
lradius 37.4962
lwrist 24.4744
lhand -19.9136 13.9206
lfingers 7.12502
lthumb 6.42327 43.8032
rfemur -67.7085 -0.424332 21.1902
rtibia 78.5037
rfoot 6.8918 -11.8119
rtoes -14.8014
lfemur -48.6069 10.981 -18.6737
ltibia 87.5879
lfoot 20.0539 -9.44301
ltoes -19.2361
671
root 5.72747 15.7451 -4.33299 352.434 94.5429 336.718
lowerback 36.3007 -3.87919 2.9363
upperback 9.48477 -2.80726 -2.32405
thorax -7.78977 -0.779925 -3.01036
lowerneck 2.40426 -1.38716 1.40765
upperneck -25.0448 -0.392506 2.9643
head -8.12645 -0.235894 0.72828
rclavicle 6.95746e-015 2.16675e-014
rhumerus -29.235 3.4891 -88.6485
rradius 43.3309
rwrist -1.5494
rhand -21.5337 -9.9221
rfingers 7.12502
rthumb 4.85903 -39.8464
lclavicle 6.95746e-015 2.16675e-014
lhumerus -31.1689 1.49003 82.8057
lradius 37.5283
lwrist 24.5715
lhand -19.9732 13.9393
lfingers 7.12502
lthumb 6.36572 43.8237
rfemur -67.515 -0.498423 21.1498
rtibia 79.0134
rfoot 6.8286 -11.993
rtoes -14.6929
lfemur -49.8832 10.9735 -18.9037
ltibia 88.0799
lfoot 18.0759 -9.18546
ltoes -19.7777
672
root 5.84694 15.7384 -4.32908 352.658 94.7659 336.991
lowerback 36.4122 -3.91847 2.95833
upperback 9.4976 -2.83326 -2.3111
thorax -7.81639 -0.787973 -2.9963
lowerneck 2.38766 -1.41795 1.3902
upperneck -25.0062 -0.42889 3.01591
head -8.10965 -0.256463 0.750967
rclavicle 3.77691e-015 -2.62396e-014
rhumerus -29.2265 3.45653 -88.5886
rradius 43.4073
rwrist -1.58387
rhand -21.5301 -9.84649
rfingers 7.12502
rthumb 4.86247 -39.7707
lclavicle 3.77691e-015 -2.62396e-014
lhumerus -31.1325 1.43995 82.8438
lradius 37.5576
lwrist 24.6718
lhand -20.0157 13.9694
lfingers 7.12502
lthumb 6.32468 43.855
rfemur -67.3011 -0.586234 21.1208
rtibia 79.5101
rfoot 6.75949 -12.162
rtoes -14.5591
lfemur -51.1874 10.9911 -19.1704
ltibia 88.4858
lfoot 16.1894 -8.81623
ltoes -20.0041
673
root 5.96584 15.7308 -4.32589 353.049 94.9839 337.444
lowerback 36.538 -3.95559 2.98306
upperback 9.50973 -2.85313 -2.28453
thorax -7.84741 -0.793232 -2.97117
lowerneck 2.37544 -1.45237 1.36315
upperneck -24.979 -0.472614 3.05979
head -8.09735 -0.278967 0.773331
rclavicle 1.74931e-014 2.98177e-015
rhumerus -29.222 3.43037 -88.5183
rradius 43.4726
rwrist -1.63329
rhand -21.5354 -9.79357
rfingers 7.12502
rthumb 4.85743 -39.7179
lclavicle 1.74931e-014 2.98177e-015
lhumerus -31.1096 1.41329 82.8855
lradius 37.5739
lwrist 24.751
lhand -20.0428 14.0127
lfingers 7.12502
lthumb 6.29852 43.8991
rfemur -67.0675 -0.689619 21.118
rtibia 79.9934
rfoot 6.70687 -12.3079
rtoes -14.55
lfemur -52.5123 11.0342 -19.4687
ltibia 88.8023
lfoot 14.3427 -8.40542
ltoes -20.1431
674
root 6.08456 15.7223 -4.32315 353.643 95.1995 338.114
lowerback 36.6747 -3.99288 3.02206
upperback 9.52142 -2.86635 -2.24979
thorax -7.88211 -0.795388 -2.94711
lowerneck 2.36933 -1.49415 1.33756
upperneck -24.9599 -0.527282 3.0993
head -8.08877 -0.306564 0.794889
rclavicle 3.57812e-015 3.18055e-015
rhumerus -29.2221 3.39728 -88.4455
rradius 43.5259
rwrist -1.69359
rhand -21.5281 -9.77776
rfingers 7.12502
rthumb 4.86439 -39.7019
lclavicle 3.57812e-015 3.18055e-015
lhumerus -31.1043 1.38958 82.9249
lradius 37.5776
lwrist 24.7974
lhand -20.0603 14.0593
lfingers 7.12502
lthumb 6.28156 43.9461
rfemur -66.8101 -0.817319 21.1558
rtibia 80.4636
rfoot 6.66537 -12.4468
rtoes -14.5814
lfemur -53.8456 11.1002 -19.791
ltibia 89.0252
lfoot 12.5538 -7.98633
ltoes -20.1645
675
root 6.20309 15.7124 -4.32075 354.387 95.4075 338.944
lowerback 36.8102 -4.02695 3.06274
upperback 9.53481 -2.87359 -2.20487
thorax -7.91325 -0.794868 -2.9154
lowerneck 2.37561 -1.53742 1.29792
upperneck -24.9541 -0.583351 3.14482
head -8.08671 -0.334229 0.821112
rclavicle -1.45113e-014 -3.24019e-014
rhumerus -29.2212 3.37086 -88.3726
rradius 43.5596
rwrist -1.75222
rhand -21.5273 -9.77032
rfingers 7.12502
rthumb 4.86522 -39.6945
lclavicle -1.45113e-014 -3.24019e-014
lhumerus -31.1183 1.38439 82.9614
lradius 37.574
lwrist 24.8044
lhand -20.0647 14.0914
lfingers 7.12502
lthumb 6.27732 43.9784
rfemur -66.5409 -0.969012 21.2382
rtibia 80.9247
rfoot 6.63226 -12.5969
rtoes -14.5808
lfemur -55.1888 11.1889 -20.1402
ltibia 89.1527
lfoot 10.7541 -7.60609
ltoes -20.4156
676
root 6.32148 15.7009 -4.31858 355.239 95.6063 339.886
lowerback 36.9396 -4.05575 3.10944
upperback 9.54979 -2.87205 -2.15823
thorax -7.9399 -0.790312 -2.88852
lowerneck 2.38105 -1.5863 1.27071
upperneck -24.9448 -0.646293 3.19097
head -8.08333 -0.366479 0.845922
rclavicle 1.70955e-014 2.80286e-014
rhumerus -29.2196 3.32551 -88.3073
rradius 43.5736
rwrist -1.79853
rhand -21.5435 -9.7727
rfingers 7.12502
rthumb 4.84957 -39.6972
lclavicle 1.70955e-014 2.80286e-014
lhumerus -31.149 1.36694 82.9898
lradius 37.5684
lwrist 24.7822
lhand -20.0815 14.146
lfingers 7.12502
lthumb 6.26116 44.0335
rfemur -66.265 -1.14515 21.3637
rtibia 81.3799
rfoot 6.62576 -12.7663
rtoes -14.4446
lfemur -56.5379 11.2969 -20.5186
ltibia 89.1784
lfoot 9.02552 -7.31001
ltoes -20.8233
677
root 6.4396 15.6877 -4.3166 356.137 95.7948 340.868
lowerback 37.0507 -4.07895 3.15181
upperback 9.56646 -2.8661 -2.11023
thorax -7.95764 -0.783964 -2.86
lowerneck 2.39353 -1.63297 1.24095
upperneck -24.9385 -0.704071 3.24612
head -8.0822 -0.39695 0.873855
rclavicle -4.47266e-014 -2.82274e-014
rhumerus -29.2101 3.27982 -88.2495
rradius 43.5652
rwrist -1.83387
rhand -21.5652 -9.76912
rfingers 7.12502
rthumb 4.82866 -39.6941
lclavicle -4.47266e-014 -2.82274e-014
lhumerus -31.1909 1.35032 83.01
lradius 37.5507
lwrist 24.7263
lhand -20.1232 14.2294
lfingers 7.12502
lthumb 6.22092 44.1181
rfemur -65.9981 -1.34431 21.5239
rtibia 81.8316
rfoot 6.67343 -12.9577
rtoes -14.1234
lfemur -57.8982 11.4159 -20.9312
ltibia 89.0999
lfoot 7.44578 -7.10731
ltoes -21.1474
678
root 6.55785 15.6728 -4.31509 356.991 95.9609 341.8
lowerback 37.1373 -4.0893 3.17675
upperback 9.58655 -2.8522 -2.06275
thorax -7.96192 -0.774168 -2.82657
lowerneck 2.40176 -1.67669 1.2173
upperneck -24.923 -0.757368 3.30277
head -8.07724 -0.426019 0.900811
rclavicle 2.54444e-014 1.72943e-014
rhumerus -29.1897 3.23342 -88.2011
rradius 43.5329
rwrist -1.85642
rhand -21.5972 -9.74964
rfingers 7.12502
rthumb 4.79772 -39.6753
lclavicle 2.54444e-014 1.72943e-014
lhumerus -31.2412 1.33698 83.0234
lradius 37.5209
lwrist 24.6456
lhand -20.1689 14.3199
lfingers 7.12502
lthumb 6.17676 44.2098
rfemur -65.7413 -1.55607 21.7044
rtibia 82.2793
rfoot 6.74713 -13.1425
rtoes -13.7501
lfemur -59.2596 11.548 -21.3852
ltibia 88.9093
lfoot 6.04448 -7.003
ltoes -21.2945
679
root 6.67661 15.6568 -4.31438 357.757 96.0956 342.638
lowerback 37.2069 -4.08557 3.18693
upperback 9.60604 -2.82903 -2.02416
thorax -7.96041 -0.760415 -2.79884
lowerneck 2.40462 -1.71618 1.20579
upperneck -24.8945 -0.803604 3.362
head -8.06707 -0.45309 0.925884
rclavicle -2.16675e-014 -1.53064e-014
rhumerus -29.1684 3.18048 -88.1651
rradius 43.4807
rwrist -1.86068
rhand -21.6418 -9.68955
rfingers 7.12502
rthumb 4.75465 -39.6162
lclavicle -2.16675e-014 -1.53064e-014
lhumerus -31.299 1.32009 83.0258
lradius 37.4726
lwrist 24.5515
lhand -20.2375 14.4562
lfingers 7.12502
lthumb 6.11056 44.3481
rfemur -65.4886 -1.77067 21.8923
rtibia 82.7178
rfoot 6.8432 -13.3099
rtoes -13.4901
lfemur -60.6052 11.6919 -21.8812
ltibia 88.5989
lfoot 4.8323 -6.99197
ltoes -21.2827
